<svg xmlns="http://www.w3.org/2000/svg" viewBox="0 0 1079.99965 1919.99971"><defs><style>.cls-1{fill:#703058;}.cls-2{fill:#592646;}.cls-3{fill:#3f3d3e;}.cls-4{fill:#484648;}.cls-5{fill:#434142;}.cls-6{fill:#383838;}.cls-7{fill:#4f4b4e;}.cls-8{fill:#4e4b4d;}.cls-9{fill:#272727;}.cls-10{fill:#2d2d2d;}.cls-11{fill:#7f4b70;}.cls-12{fill:#171717;}.cls-13{fill:#794269;}.cls-14{fill:#fcfcfc;}.cls-15{fill:#f8f7f8;}</style></defs><title>Asset 5</title><g id="Layer_2" data-name="Layer 2"><g id="Layer_1-2" data-name="Layer 1"><path class="cls-1" d="M1.00023,1.00014q539.99948-.00008,1079.99953-.00009,0,959.99957.00012,1919.99946-539.99936.00018-1079.99919.00025Q1.00034,961.0003,1.00023,1.00014ZM427.953,139.225c-.99679-.05315-1.99359-.15273-2.99038-.15285-57.92743-.00711-115.85526-.10635-173.78176.13-6.728.02744-13.44839,1.91892-20.17232,2.9462-8.04818,1.10019-15.1396,4.75176-22.1854,8.45091a92.4,92.4,0,0,0-26.02773,20.53005,83.41642,83.41642,0,0,0-17.23734,29.43442,50.303,50.303,0,0,1-2.5054,5.41346,28.09957,28.09957,0,0,0-3.58159,3.4222c-12.6409,17.12514-19.51026,36.18561-19.4767,57.64039q.10448,66.74808.01987,133.4964c0,1.49988-.01733,2.99979-.02444,4.49967-.00843,1.77942-.44646,3.29843-2.31961,4.00986-2.28131.86648-2.63182,2.79107-2.63735,4.89437-.00351,1.33329-.01668,2.66654-.01669,3.99982q-.00129,106.49717.00152,212.99429a29.48209,29.48209,0,0,0,.117,4.9878c.21092,1.21643.74,3.02923,1.60191,3.36737,3.52939,1.38458,3.28318,4.19262,3.282,7.04944q-.01179,29.74923-.00376,59.49841c-.00018,5.1665.07578,10.33527-.06256,15.49811-.03766,1.40521-.29957,3.55432-1.19321,4.05774-4.0292,2.26941-3.75643,5.88488-3.75465,9.584q.02721,56.49848.01349,112.997a14.99049,14.99049,0,0,0,.1246,3.97888c.3768,1.329,1.01409,3.09015,2.064,3.62018,2.39227,1.20776,2.873,2.99164,2.81151,5.305-.04869,1.83191-.00307,3.66632-.00307,5.49958q.00057,420.98877.06531,841.97753a128.21313,128.21313,0,0,0,1.55369,17.87134c1.08078,7.62427,3.80349,14.73133,7.06006,21.75354a93.98862,93.98862,0,0,0,27.5053,35.04029c17.39111,13.61328,37.46052,19.95214,59.48854,19.95507q280.99251.03828,561.985-.027c8.14234-.00232,16.312-.3053,24.42047-1.01868,12.27967-1.08057,23.72089-5.2196,34.50043-11.05054a83.79337,83.79337,0,0,0,27.82355-23.91906c5.9516-8.036,11.4397-16.39075,14.50531-26.06153,1.04846-1.49475,2.12732-2.96936,3.14-4.48791,4.15021-6.22412,8.92127-12.13623,12.28357-18.76221,6.88489-13.568,9.67688-28.1731,9.67353-43.4585q-.10153-467.84985-.04938-935.69964c.00006-2.83234.02081-5.66468.03186-8.497,4.48566-.77716,4.77283-1.05768,4.94885-5.17957.06378-1.4928.02258-2.99035.02264-4.48571q.0012-55.08079.00007-110.16157c-.00007-1.99383.05218-3.99011-.02576-5.98107-.1615-4.12342-.45892-4.40229-4.94592-5.17817-.011-2.665-.03162-5.33013-.03162-7.99517q-.00292-179.647-.00635-359.294a92.7062,92.7062,0,0,0-5.66772-31.80061c-7.44873-20.5102-20.89368-36.19793-39.55878-47.31183-8.00378-4.76576-16.33722-9.03224-25.74127-10.51676-7.56543-1.01669-15.12964-2.90941-22.69647-2.91978q-197.67719-.27123-395.35486-.12319C432.61438,139.04613,430.28369,139.16277,427.953,139.225Z" transform="translate(-1.00023 -1.00005)"/><path class="cls-2" d="M898.92267,1740.89868c-3.06561,9.67078-8.55371,18.02551-14.50531,26.06153a83.79337,83.79337,0,0,1-27.82355,23.91906c-10.77954,5.83094-22.22076,9.97-34.50043,11.05054-8.10846.71338-16.27813,1.01636-24.42047,1.01868q-280.99247.0813-561.985.027c-22.028-.00293-42.09743-6.34179-59.48854-19.95507a93.98862,93.98862,0,0,1-27.5053-35.04029c-3.25657-7.02221-5.97928-14.12927-7.06006-21.75354a128.21313,128.21313,0,0,1-1.55369-17.87134q-.11175-420.98877-.06531-841.97753c0-1.83326-.04562-3.66767.00307-5.49958.06147-2.31341-.41924-4.09729-2.81151-5.305-1.04994-.53-1.68723-2.29114-2.064-3.62018a14.99049,14.99049,0,0,1-.1246-3.97888q-.00439-56.49847-.01349-112.997c-.00178-3.6991-.27455-7.31457,3.75465-9.584.89364-.50342,1.15555-2.65253,1.19321-4.05774.13834-5.16284.06238-10.33161.06256-15.49811q.00112-29.74925.00376-59.49841c.00113-2.85682.24734-5.66486-3.282-7.04944-.86186-.33814-1.391-2.15094-1.60191-3.36737a29.48209,29.48209,0,0,1-.117-4.9878q-.00395-106.49715-.00152-212.99429c0-1.33328.01318-2.66653.01669-3.99982.00553-2.1033.356-4.02789,2.63735-4.89437,1.87315-.71143,2.31118-2.23044,2.31961-4.00986.00711-1.49988.0244-2.99979.02444-4.49967q.002-66.74822-.01987-133.4964c-.03356-21.45478,6.8358-40.51525,19.4767-57.64039a28.1144,28.1144,0,0,1,3.58092-3.42189c-.254,1.97494-.40648,3.96879-.77852,5.92082a122.50568,122.50568,0,0,0-2.30732,23.28607q.14481,69.92151.02346,139.84358c-4.23509,1.15442-4.70034,1.65354-4.93147,5.55494-.07867,1.32809-.036,2.66378-.036,3.996q-.00185,106.419,0,212.83792c0,1.33221-.04268,2.668.03572,3.996.23027,3.901.69466,4.39929,4.93118,5.55512q-.00419,42.99205-.00834,85.98419c-4.46729.78925-4.75234,1.077-4.93837,5.209-.05233,1.16224-.02063,2.32843-.02066,3.4928q-.001,55.891.00052,111.78211c0,1.33062-.04273,2.66485.03625,3.99127.23169,3.89142.69954,4.39239,4.93121,5.54461.00962,2.66541.02761,5.33082.02762,7.99622q.002,421.80936.05483,843.61871a94.06022,94.06022,0,0,0,1.31866,17.38477c6.42133,33.92932,26.1595,57.21936,57.64025,70.76135,3.76641,1.62024,7.97361,2.21594,11.97637,3.28626a69.14216,69.14216,0,0,0,21.65085,3.04553q86.21856-.10473,172.43729-.03772,110.95958-.00953,221.91916-.032,91.3635.01337,182.727.07483a98.97427,98.97427,0,0,0,22.27728-2.19043,93.15052,93.15052,0,0,0,37.506-18.74488C892.57324,1745.62036,895.78558,1743.30518,898.92267,1740.89868Z" transform="translate(-1.00023 -1.00005)"/><path class="cls-3" d="M159.98067,692.95221q.00415-42.99207.00848-85.98383.00039-115.96984.00047-231.9404.01444-69.92184-.02346-139.84358a122.50568,122.50568,0,0,1,2.30732-23.28607c.372-1.952.52449-3.94588.77852-5.92082a50.21147,50.21147,0,0,0,2.50607-5.41377,83.41642,83.41642,0,0,1,17.23734-29.43442,92.4,92.4,0,0,1,26.02773-20.53005c7.0458-3.69915,14.13722-7.35072,22.18547-8.45208-1.10691,1.76739-2.20028,3.54467-3.32456,5.30215-1.20276,1.88014-2.43469,3.74159-3.65426,5.61046q-1.505.99744-3.00914,1.99632a72.4005,72.4005,0,0,0-7.03942,2.4948A97.77135,97.77135,0,0,0,190.5369,172.544c-7.61635,6.69894-12.83887,14.76977-17.32026,23.51178-5.6773,11.0749-7.23991,23.03244-7.239,35.36174q.05615,722.58854.032,1445.1771a44.32341,44.32341,0,0,0,.03345,4.99561c.65888,5.77466.81516,11.69885,2.2795,17.27271,5.31628,20.23583,16.95855,35.98791,35.06744,46.63769,6.146,3.61462,12.45813,7.09155,19.61351,8.48962l1.976,1.06128q3.01395,5.484,6.0279,10.968c-4.00289-1.07056-8.21009-1.66626-11.9765-3.2865-31.48075-13.542-51.21892-36.832-57.64025-70.76135a94.06022,94.06022,0,0,1-1.31866-17.38477q-.09174-421.80925-.05483-843.61871c0-2.6654-.018-5.33081-.02749-7.99591Q159.98536,757.96253,159.98067,692.95221Z" transform="translate(-1.00023 -1.00005)"/><path class="cls-4" d="M898.92267,1740.89868c-3.13709,2.4065-6.34943,4.72168-9.39771,7.236a93.16932,93.16932,0,0,1-37.50641,18.74622c1.11976-1.80982,2.26825-3.60413,3.35279-5.43628,1.2478-2.10815,2.4389-4.24963,3.65466-6.37671q2.13492-.69232,4.26984-1.38537c17.54187-5.73182,31.79028-16.07813,42.0274-31.38514a74.7829,74.7829,0,0,0,12.70575-42.44275q-.06408-725.72168-.035-1451.44337c0-.99995.01782-2.00046-.00757-2.9998a73.97942,73.97942,0,0,0-9.621-34.28986,71.62642,71.62642,0,0,0-16.0307-19.55665A81.86531,81.86531,0,0,0,869.6593,157.2832c-3.54022-1.45656-7.09747-2.8717-10.647-4.30566-.71631-1.58853-1.32318-3.23872-2.17535-4.75069-1.18378-2.10031-2.55158-4.09691-3.84058-6.13791,9.404,1.48452,17.73749,5.751,25.74127,10.51676,18.6651,11.1139,32.11005,26.80163,39.55878,47.31183a92.7062,92.7062,0,0,1,5.66772,31.80061q.00971,179.647.00635,359.294c0,2.665.02063,5.33014.03156,7.995l.00018,130.98621c-.011,2.83233-.0318,5.66467-.03186,8.497q-.00221,467.84976.04938,935.69964c.00335,15.2854-2.78864,29.89051-9.67353,43.4585-3.3623,6.626-8.13336,12.53809-12.28357,18.76221C901.05,1737.92932,899.97113,1739.40393,898.92267,1740.89868Z" transform="translate(-1.00023 -1.00005)"/><path class="cls-5" d="M852.9964,142.08894c1.289,2.041,2.6568,4.0376,3.84058,6.13791.85217,1.512,1.459,3.16216,2.17523,4.751-4.47052-.33046-8.94074-.94868-13.4112-.95013q-207.80428-.06675-415.60852-.02225-.4742-.03343-.94549-.09619-.547-6.34211-1.094-12.6842c2.33069-.06227,4.66138-.17891,6.99207-.17907q197.67755-.01277,395.35486.12319C837.86676,139.17953,845.431,141.07225,852.9964,142.08894Z" transform="translate(-1.00023 -1.00005)"/><path class="cls-6" d="M427.953,139.225q.547,6.34211,1.09357,12.68515c-2.99417.025-5.98792.044-8.98157.07393-65.34332.65239-130.70126-1.34868-196.03485,1.07641,1.21921-1.8696,2.45114-3.73105,3.6539-5.61119,1.12428-1.75748,2.21765-3.53476,3.32456-5.30215,6.72386-1.02611,13.44426-2.91759,20.17225-2.945,57.9265-.23632,115.85433-.13708,173.78176-.13C425.95941,139.07231,426.95621,139.17189,427.953,139.225Z" transform="translate(-1.00023 -1.00005)"/><path class="cls-7" d="M924.00226,729.99341l-.00018-130.98621c4.48706.776,4.78448,1.05487,4.946,5.17829.07794,1.991.02569,3.98724.02576,5.98107q.00118,55.08078-.00007,110.16157c-.00006,1.49536.04114,2.99291-.02264,4.48571C928.77509,728.93573,928.48792,729.21625,924.00226,729.99341Z" transform="translate(-1.00023 -1.00005)"/><path class="cls-6" d="M429.99237,152.00549q207.80439-.00977,415.60864.02219c4.47046.00145,8.94068.61967,13.4112.95013,3.54962,1.43369,7.10687,2.84883,10.64709,4.30539a81.86531,81.86531,0,0,1,22.67542,14.28173,71.62642,71.62642,0,0,1,16.0307,19.55665,73.97942,73.97942,0,0,1,9.621,34.28986c.02539.99934.00757,1.99985.00757,2.9998q.00009,725.72171.035,1451.44337a74.7829,74.7829,0,0,1-12.70575,42.44275c-10.23712,15.307-24.48553,25.65332-42.0274,31.38514q-2.13356.69726-4.27008,1.38464c-9.35547,1.76318-18.79663,2.02173-28.29578,1.98181-28.9519-.12158-57.90466-.04395-86.85706-.04395q-45.42534,0-90.85064.02247c-2.07459.00219-4.14881.32434-6.51685.52233.18585,2.37.37677,4.16016.45307,5.95533.07757,1.82751.04211,3.65979.05615,5.49q-110.95963.01647-221.91916.032-86.21865.00732-172.43729.03772a69.14216,69.14216,0,0,1-21.65085-3.04553q-3.01377-5.48364-6.02757-10.96826c6.10677.64575,12.21288,1.851,18.32,1.85607q197.056.1628,394.11231.08082c1.33166,0,2.66327-.03626,3.99493-.05213,2.50189-.03,3.62781-1.37768,3.5542-3.79114a33.68565,33.68565,0,0,0-.305-3.47363q-1.30143-9.635-2.64459-19.26428-2.0366-14.56183-4.10236-29.12024c2.49585-.07568,4.99176-.21607,7.48761-.21655q97.48307-.01832,194.96607-.049a112.10016,112.10016,0,0,0,13.93109-.906c21.67987-2.74353,44.34124-21.77368,49.8695-44.91772a88.6372,88.6372,0,0,0,1.98151-20.81946q-.031-673.13305-.0202-1346.266c0-2.66611.03106-5.33423-.06043-7.99768a53.50017,53.50017,0,0,0-.4909-5.46616,58.18991,58.18991,0,0,0-19.92194-36.90788c-7.67438-6.77117-15.99219-12.0905-25.9353-14.21436a98.30125,98.30125,0,0,0-20.27741-2.2809q-196.46558-.194-392.93155-.1017c-2.498-.00012-4.996-.08682-7.494-.13311-.67005-3.91822-1.43232-7.82332-1.99158-11.75728-1.28339-9.02823-2.563-18.0589-3.667-27.1102C432.13107,172.10944,431.10468,162.05223,429.99237,152.00549Zm111.82385,43.07422q23.704,0,47.408-.00458a37.41481,37.41481,0,0,0,4.48541-.12443c3.53211-.42963,5.41993-2.29,5.98-5.68707a6.65952,6.65952,0,0,0-4.02094-7.28487,14.53039,14.53039,0,0,0-5.32843-.93781q-48.40585-.07941-96.81183.0038a13.9975,13.9975,0,0,0-5.31372.99227,6.618,6.618,0,0,0-3.87326,7.35432c.62045,3.38779,2.49768,5.1675,6.07971,5.57164a40.2791,40.2791,0,0,0,4.48624.11267Q518.36178,195.08566,541.81622,195.07971Zm160.25415-2.641c1.0138-8.11522-7.91949-17.52276-16.94018-17.4496-9.78156.07936-18.15668,8.08264-18.08258,17.619.07287,9.368,8.20843,17.26067,17.79852,17.376C693.12622,210.08366,702.67535,202.95,702.07037,192.43875Zm61.99091.005c.6748-6.198-5.86194-12.28379-11.86774-12.39431-6.16595-.11346-12.44,6.04515-12.40661,12.50882.0321,6.20508,6.0083,12.28052,12.01928,12.39421C757.96082,205.06882,764.77411,198.91423,764.06128,192.4437Z" transform="translate(-1.00023 -1.00005)"/><path class="cls-5" d="M647.01465,1768.99512c-.014-1.8302.02142-3.66248-.05615-5.49-.0763-1.79517-.26722-3.58533-.45307-5.95533,2.368-.198,4.44226-.52014,6.51685-.52233q45.42535-.04908,90.85064-.02247c28.9524,0,57.90516-.07763,86.85706.04395,9.49915.03992,18.94031-.21863,28.29578-1.98181-1.21552,2.12781-2.40662,4.26929-3.65442,6.37744-1.08454,1.83215-2.233,3.62646-3.35279,5.43628a99.04539,99.04539,0,0,1-22.27691,2.18909Q738.37832,1768.92822,647.01465,1768.99512Z" transform="translate(-1.00023 -1.00005)"/><path class="cls-8" d="M159.98962,375.028q-.00015,115.9704-.00047,231.9404c-4.23666-1.15619-4.70105-1.65448-4.93132-5.55548-.0784-1.32806-.03569-2.66382-.03572-3.996q-.00181-106.419,0-212.83792c0-1.33225-.04265-2.66794.036-3.996C155.28928,376.68152,155.75453,376.1824,159.98962,375.028Z" transform="translate(-1.00023 -1.00005)"/><path class="cls-8" d="M159.98067,692.95221q.00459,65.01022.00908,130.02008c-4.2318-1.15253-4.69965-1.6535-4.93134-5.54492-.079-1.32642-.03621-2.66065-.03625-3.99127q-.00209-55.891-.00052-111.78211c0-1.16437-.03167-2.33056.02066-3.4928C155.22833,694.02924,155.51338,693.74146,159.98067,692.95221Z" transform="translate(-1.00023 -1.00005)"/><path class="cls-9" d="M637.90924,1701.287q2.05262,14.55963,4.10236,29.11975,1.34664,9.62879,2.64459,19.26428a33.68565,33.68565,0,0,1,.305,3.47363c.07361,2.41346-1.05231,3.76111-3.5542,3.79114-1.33166.01587-2.66327.05213-3.99493.05213q-197.05619.00311-394.11231-.08082c-6.10708-.00512-12.21319-1.21032-18.32-1.85607q-.98831-.52992-1.97624-1.06067c-1.33052-2.65662-2.6116-5.3396-3.9998-7.96582-7.421-14.04-12.18442-29.06372-16.25055-44.32141-1.23081-4.61866-1.8006-9.41346-2.67336-14.125,2.74842,1.83251,5.384,3.8673,8.26567,5.45556,10.90288,6.0094,22.6113,8.17346,35.06513,8.16065q194.554-.19941,389.10841-.087c1.83-.00012,3.6601-.08325,5.49012-.12756Z" transform="translate(-1.00023 -1.00005)"/><path class="cls-10" d="M200.08,1687.57556c.87257,4.71411,1.44236,9.50891,2.67317,14.12757,4.06613,15.25769,8.82957,30.28137,16.25055,44.32141,1.3882,2.62622,2.66928,5.3092,3.9998,7.96582-7.15535-1.3982-13.46744-4.87513-19.61348-8.48975-18.10889-10.64978-29.75116-26.40186-35.06744-46.63769-1.46434-5.57386-1.62062-11.498-2.2795-17.27271a44.32341,44.32341,0,0,1-.03345-4.99561q-.00032-722.58855-.032-1445.1771c-.001-12.3293,1.56165-24.28684,7.239-35.36174,4.48139-8.742,9.70391-16.81284,17.32026-23.51178a97.77135,97.77135,0,0,1,23.44433-14.99306,72.58121,72.58121,0,0,1,7.03922-2.49541,39.33776,39.33776,0,0,1-1.67432,5.16474c-4.02571,8.40364-7.63152,16.94384-9.69194,26.08261-1.67879,7.44613-3.8548,14.79644-5.18861,22.29976-1.5062,8.47314-2.31746,17.06982-3.431,25.6118-1.06836,1.04635-2.12282,2.10824-3.20729,3.13855-5.95051,5.65333-11.24757,11.76548-14.75493,19.32406-4.51857,9.73789-6.02592,19.95816-6.0249,30.60913q.06454,673.88138.03853,1347.76279c0,1.99951-.06537,4.00415.05049,5.99768.7717,13.27979,4.16692,25.625,13.15257,35.88208C193.46512,1680.55432,196.8114,1684.031,200.08,1687.57556Z" transform="translate(-1.00023 -1.00005)"/><path class="cls-9" d="M201.03464,234.21539c1.11348-8.543,1.92474-17.13963,3.43094-25.61277,1.33381-7.50332,3.50982-14.85363,5.18861-22.29976,2.06042-9.13877,5.66623-17.679,9.69194-26.08261a39.33776,39.33776,0,0,0,1.67432-5.16474q1.50466-.9976,3.00932-1.99571c65.334-2.42436,130.69191-.42329,196.03523-1.07568,2.99365-.0299,5.9874-.04889,8.98157-.07393q.47192.06136.94589.09524c1.11222,10.0468,2.13861,20.104,3.36231,30.13715,1.10391,9.0513,2.38357,18.082,3.667,27.1102.55926,3.934,1.32153,7.83906,1.99158,11.75728l.10437.32455c-2.49683-.07106-4.99366-.2037-7.49048-.20416q-93.24774-.01719-186.49547.032a109.7621,109.7621,0,0,0-15.43555.97656A63.31234,63.31234,0,0,0,201.03464,234.21539ZM327.2,175.99863c-7.77524-1.06981-17.23962,8.16708-17.11557,16.12591.13416,8.6098,7.96576,16.55211,16.66812,16.77567,8.88752.22831,17.24616-7.62877,17.07138-16.64649C343.64731,183.13885,336.82806,175.77567,327.2,175.99863Zm70.7844,16.199c.96426-5.56358-6.91269-13.10081-12.6084-13.1461-6.55017-.05209-13.31229,6.4014-13.27921,12.99937.03214,6.41191,6.48224,12.8471,12.88226,12.85247C391.37366,204.90877,397.90207,198.53072,397.98441,192.19766Zm24.88418,9.78539a9.59945,9.59945,0,0,0,9.99091-9.51395,10.67353,10.67353,0,0,0-10.12171-10.32062,9.62059,9.62059,0,0,0-9.72036,9.77553C412.97678,197.94461,416.89011,201.94051,422.86859,201.98305Zm-136.90524-9.60529c-.00046-5.03528-3.49628-8.44369-8.55585-8.3419a8.1817,8.1817,0,0,0-8.36511,8.139c-.08872,4.38132,4.03128,8.47447,8.65222,8.59578C281.69608,200.87567,285.96371,196.544,285.96335,192.37776Z" transform="translate(-1.00023 -1.00005)"/><path class="cls-11" d="M439.01328,221.01006c2.498.04629,4.996.133,7.494.13311q196.46582.00991,392.93155.1017a98.30125,98.30125,0,0,1,20.27741,2.2809c9.94311,2.12386,18.26092,7.44319,25.9353,14.21436A58.18991,58.18991,0,0,1,905.57349,274.648a53.50017,53.50017,0,0,1,.4909,5.46616c.09149,2.66345.06043,5.33157.06043,7.99768q.00257,673.133.0202,1346.266a88.6372,88.6372,0,0,1-1.98151,20.81946c-5.52826,23.144-28.18963,42.17419-49.8695,44.91772a112.10016,112.10016,0,0,1-13.93109.906q-97.483.08641-194.96607.049c-2.49585.00048-4.99176.14087-7.48761.21655l.09992-.30676q-1.83307-13.84406-3.66919-27.688c-1.74768-13.02161-3.53888-26.0376-5.27155-39.06116-1.57886-11.86719-3.07892-23.74487-4.66034-35.61182-1.75751-13.18774-3.59271-26.36535-5.34766-39.55346-1.55725-11.70252-3.03259-23.41614-4.578-35.12024-1.45843-11.0459-2.969-22.08472-4.44165-33.12866-1.58233-11.86658-3.08093-23.74451-4.74548-35.59937-.94831-6.75391-2.28351-13.45386-3.217-20.20935-1.59314-11.52978-2.96338-23.09021-4.50836-34.62683-1.78791-13.35132-3.72486-26.68274-5.48407-40.0376-1.84589-14.01257-3.492-28.05127-5.34528-42.06274-2.15869-16.32068-4.48761-32.61878-6.66754-48.93665-1.82764-13.68066-3.4942-27.38269-5.32984-41.06213-1.81353-13.51538-3.74646-27.01489-5.63269-40.52039q-3.86279-27.65826-7.72589-55.31616Q558.65539,1112.676,556.048,1092.89q-2.33541-17.55377-4.59747-35.11743-1.739-13.35369-3.45447-26.71057c.82636-.07214,1.65271-.20679,2.47913-.2074q26.96375-.01922,53.92755-.0111c.33289,0,.66626-.00916.9986.00549,3.98175.17517,4.45941.61072,4.62695,4.76977.1004,2.49195-.01324,4.99195.00324,7.48816.0274,4.16016-.02131,8.32434.15728,12.47864.14752,3.4336.86829,4.205,4.16577,4.19348,3.93427-.01379,7.86731-.368,12.47986-.61035,0-2.555.00025-4.49744,0-6.43982q-.00513-38.698-.04083-77.39593a55.08959,55.08959,0,0,0-.71295-9.91236C622.83,947.96332,612.55914,933.941,589.89984,933.9873q-17.72607.03625-35.45239-.00506c-6.48627-.01788-12.97229-.12952-19.45844-.19879-.3609-2.79956-.55127-5.63489-1.1286-8.3891-.635-3.02869-.23541-6.411-2.69159-8.89862,2.869-1.21973,5.79145-2.32929,8.59174-3.69025,2.73212-1.32782,6.034-1.76257,8.81616-5.18518-5.69977.84619-10.35828,1.53784-15.01678,2.22943-.82422-1.7843-2.13062-3.50061-2.39338-5.36407-1.55523-11.02857-2.79974-22.10071-4.32861-33.13324-.26172-1.88874-1.3894-3.65747-2.117-5.48163.64508-1.687,1.36682-3.34918,1.92071-5.06549,1.60871-4.98468.35529-8.85089-3.84356-12.12445-.15412-2.81232-.13654-5.6471-.50013-8.43207-.64477-4.94013-1.6167-9.8371-2.28186-14.775-1.82007-13.51251-3.5097-27.0426-5.33026-40.55505-1.82062-13.51306-3.79877-27.005-5.59576-40.52106-2.19135-16.48193-4.22363-32.98492-6.40268-49.4685-2.17908-16.48389-4.46576-32.95362-6.68372-49.43237-1.59677-11.86347-3.14859-23.73292-4.73791-35.59736-1.72217-12.856-3.48136-25.707-5.19327-38.56439-1.60178-12.03039-3.07428-24.07873-4.7673-36.09613-1.62326-11.52246-3.54929-23.0022-5.17276-34.52466-1.73963-12.347-3.28049-24.72207-4.90976-37.08465q-2.08581-15.82636-4.1734-31.65244c-1.53434-11.7044-3.02826-23.41415-4.588-35.11517-1.77972-13.35108-3.6326-26.69238-5.41653-40.04291-1.56348-11.70053-3.05133-23.4111-4.61676-35.11136-1.76419-13.18561-3.60108-26.36154-5.363-39.54745-1.58539-11.86511-3.11389-23.73786-4.66388-35.60768q-1.64643-12.60837-3.28347-25.218ZM545.48792,888.8902l-1.12421-1.4289c1.67663-4.33984,3.45422-8.64422,4.99463-13.03186,1.03051-2.93542-.00269-5.756-2.01343-6.41406-2.71-.88678-7.486,2.012-8.499,5.92951.46429.14422,1.4295.444,2.37359.73718-1.23407,2.16314-2.15259,3.72711-3.02545,5.3161-.88074,1.60339-1.79163,3.19714-2.55127,4.85815a31.05631,31.05631,0,0,0-2.18225,5.53675c-1.28827,5.3775.80334,8.64373,6.059,10.16076,3.49664,1.00934,6.59253.045,9.53394-1.66736q13.57086-7.9,27.07068-15.92144c1.328-.78766,2.5119-1.81818,3.76245-2.73639l-.48743-.818Q562.4436,884.15043,545.48792,888.8902Zm21.211-23.06665a22.13077,22.13077,0,0,1-1.75268,2.95843c-1.07129,1.25312-2.37158,2.312-3.4281,3.57587-2.17816,2.60559-1.50684,4.55694,1.82373,5.36487a18.40078,18.40078,0,0,0,3.29388.02624c-2.62689-3.99853-.05487-6.25177,1.77576-8.74927,1.76269-2.405,3.55115-4.80621,2.19391-8.08551-3.59033-.47479-5.80371,1.05414-7.4953,4.26923C564.285,865.393,565.16858,865.5506,566.69891,865.82355Z" transform="translate(-1.00023 -1.00005)"/><path class="cls-12" d="M541.81622,195.07974q-23.45443,0-46.90887-.00409a40.2791,40.2791,0,0,1-4.48624-.11267c-3.582-.40414-5.45926-2.18385-6.07971-5.57164a6.618,6.618,0,0,1,3.87326-7.35432,13.9975,13.9975,0,0,1,5.31372-.99227q48.40585-.08571,96.81183-.0038a14.53039,14.53039,0,0,1,5.32843.93781,6.65952,6.65952,0,0,1,4.02094,7.28487c-.56006,3.39711-2.44788,5.25744-5.98,5.68707a37.41481,37.41481,0,0,1-4.48541.12443Q565.52018,195.08622,541.81622,195.07974Z" transform="translate(-1.00023 -1.00005)"/><path class="cls-12" d="M702.07037,192.43875c.605,10.51128-8.94415,17.64491-17.22424,17.54537-9.59009-.1153-17.72565-8.008-17.79852-17.376-.0741-9.53636,8.301-17.53964,18.08258-17.619C694.15088,174.916,703.08417,184.32353,702.07037,192.43875Z" transform="translate(-1.00023 -1.00005)"/><path class="cls-12" d="M764.06128,192.4437c.71283,6.47053-6.10046,12.62512-12.25507,12.50872-6.011-.11369-11.98718-6.18913-12.01928-12.39421-.03339-6.46367,6.24066-12.62228,12.40661-12.50882C758.19934,180.15991,764.73608,186.24574,764.06128,192.4437Z" transform="translate(-1.00023 -1.00005)"/><path class="cls-13" d="M439.11768,221.33461q1.64139,12.609,3.28347,25.218c1.55,11.86982,3.07849,23.74257,4.66388,35.60768,1.76187,13.18591,3.59876,26.36184,5.363,39.54745,1.56543,11.70026,3.05328,23.41083,4.61676,35.11136,1.78393,13.35053,3.63681,26.69183,5.41653,40.04291,1.55976,11.701,3.05368,23.41077,4.588,35.11517q2.07482,15.82778,4.1734,31.65244c1.62927,12.36258,3.17013,24.73764,4.90976,37.08465,1.62347,11.52246,3.5495,23.0022,5.17276,34.52466,1.693,12.0174,3.16552,24.06574,4.7673,36.09613,1.71191,12.85736,3.4711,25.70844,5.19327,38.56439,1.58932,11.86444,3.14114,23.73389,4.73791,35.59736,2.218,16.47875,4.50464,32.94848,6.68372,49.43237,2.17905,16.48358,4.21133,32.98657,6.40268,49.4685,1.797,13.51606,3.77514,27.008,5.59576,40.52106,1.82056,13.51245,3.51019,27.04254,5.33026,40.55505.66516,4.93793,1.63709,9.8349,2.28186,14.775.36359,2.785.346,5.61975.50013,8.43207-3.90937-.61682-6.64,1.17059-8.94092,4.14892-6.29087,8.14295-12.68161,16.20874-18.9877,24.34009a45.474,45.474,0,0,0-2.5033,3.99194l.58789.54566c2.55328-1.53455,5.10654-3.06915,8.71848-5.24-.81192,2.695-1.2237,4.23749-1.73963,5.74432-2.365,6.908-4.76623,13.80347-7.14026,20.70831-1.76071,5.121-.49521,9.91272,2.07642,14.31684a12.91366,12.91366,0,0,0,15.022,6.098c7.18823-1.92188,14.19324-4.52936,21.27777-6.83917,2.45618,2.48761,2.05658,5.86993,2.69159,8.89862.57733,2.75421.7677,5.58954,1.1286,8.3891-.99047.09887-1.98376.17535-2.97088.30047-3.82947.48529-4.56482,1.2605-4.69818,4.9881-.04169,1.16516-.00873,2.33307-.00885,3.4997q-.00221,26.24614-.00837,52.49224c-.00445,5.9079-.20037,6.0943-6.21765,6.09693q-26.49934.01162-52.99868-.012c-1.77305-.00208-3.5459-.17243-5.699-.28449-.14679-2.55774-.374-4.67779-.37393-6.79785q.00136-35.24844.05578-70.49689a35.011,35.011,0,0,0-.24987-5.97607c-.16538-.95264-1.18116-2.46613-1.87476-2.50171a88.11379,88.11379,0,0,0-11.95319.09485,3.25638,3.25638,0,0,0-2.81063,3.60113c.02545.99921-.007,1.99976-.007,2.9997q-.00092,65.49838-.00006,130.9967c0,1-.0673,2.00684.02511,2.99854.25531,2.74011,1.30551,3.84741,4.05478,4.00952,2.32541.13721,4.6651.05823,6.99811.03515,5.10431-.05041,5.81054-.76208,5.79623-5.75256-.01669-5.832-.07449-11.66443-.02621-17.49585.01452-1.7561.32318-3.50976.5437-5.73462H469.015q36.74908,0,73.49817.00965c1.8277.001,3.65528.13549,5.48291.20788q1.72641,13.35535,3.45447,26.71057,2.28672,17.56019,4.59747,35.11743,2.63187,19.78254,5.33655,39.55518,3.81923,27.66413,7.72589,55.31616c1.88623,13.5055,3.81916,27.005,5.63269,40.52039,1.83564,13.67944,3.5022,27.38147,5.32984,41.06213,2.17993,16.31787,4.50885,32.616,6.66754,48.93665,1.85327,14.01147,3.49939,28.05017,5.34528,42.06274,1.75921,13.35486,3.69616,26.68628,5.48407,40.0376,1.545,11.53662,2.91522,23.09705,4.50836,34.62683.93353,6.75549,2.26873,13.45544,3.217,20.20935,1.66455,11.85486,3.16315,23.73279,4.74548,35.59937,1.47266,11.04394,2.98322,22.08276,4.44165,33.12866,1.54541,11.7041,3.02075,23.41772,4.578,35.12024,1.755,13.18811,3.59015,26.36572,5.34766,39.55346,1.58142,11.86695,3.08148,23.74463,4.66034,35.61182,1.73267,13.02356,3.52387,26.03955,5.27155,39.06116q1.85769,13.84075,3.66919,27.688c-1.83.04431-3.6601.12744-5.49012.12756q-194.55427.009-389.10841.087c-12.45383.01281-24.16225-2.15125-35.06513-8.16065-2.88165-1.58826-5.51725-3.623-8.26565-5.45556-3.26845-3.54712-6.61473-7.02381-9.79079-10.64942-8.98565-10.25708-12.38087-22.60229-13.15257-35.88208-.11586-1.99353-.05049-3.99817-.05049-5.99768q-.00239-673.88141-.03853-1347.76279c-.001-10.651,1.50633-20.87124,6.0249-30.60913,3.50736-7.55858,8.80442-13.67073,14.75493-19.32406,1.08447-1.03031,2.13893-2.0922,3.20729-3.13855A63.32184,63.32184,0,0,1,229.69618,222.139a109.7621,109.7621,0,0,1,15.43555-.97656q93.24762-.09491,186.49547-.032C434.124,221.13091,436.62085,221.26355,439.11768,221.33461Zm80.63208,741.03307c-.87293-3.85657-1.29059-7.89008-2.70667-11.53571-3.80469-9.795-10.94461-16.11127-21.63858-16.52374-10.40634-.40137-17.93805,5.02728-22.71173,14.224-4.59406,8.8507-4.29767,17.86627-.89856,27.00531a26.49222,26.49222,0,0,0,10.24,13.09045,22.49781,22.49781,0,0,0,31.00159-5.44434C517.51727,976.99866,518.99982,969.95221,519.74976,962.36768Z" transform="translate(-1.00023 -1.00005)"/><path class="cls-12" d="M327.2,175.99863c9.628-.223,16.4473,7.14022,16.62393,16.25509.17478,9.01772-8.18386,16.8748-17.07138,16.64649-8.70236-.22356-16.534-8.16587-16.66812-16.77567C309.96039,184.16571,319.42477,174.92882,327.2,175.99863Z" transform="translate(-1.00023 -1.00005)"/><path class="cls-12" d="M397.98441,192.19766c-.08234,6.33306-6.61075,12.71111-13.00535,12.70574-6.4-.00537-12.85012-6.44056-12.88226-12.85247-.03308-6.598,6.729-13.05146,13.27921-12.99937C391.07172,179.09685,398.94867,186.63408,397.98441,192.19766Z" transform="translate(-1.00023 -1.00005)"/><path class="cls-12" d="M422.86859,201.98305c-5.97848-.04254-9.89181-4.03844-9.85116-10.059a9.62059,9.62059,0,0,1,9.72036-9.77553A10.67353,10.67353,0,0,1,432.8595,192.4691,9.59945,9.59945,0,0,1,422.86859,201.98305Z" transform="translate(-1.00023 -1.00005)"/><path class="cls-12" d="M285.96335,192.37776c.00036,4.1662-4.26727,8.49791-8.26874,8.39284-4.62094-.12131-8.74094-4.21446-8.65222-8.59578a8.1817,8.1817,0,0,1,8.36511-8.139C282.46707,183.93407,285.96289,187.34248,285.96335,192.37776Z" transform="translate(-1.00023 -1.00005)"/><path class="cls-14" d="M547.99609,1031.062c-1.82763-.07239-3.65521-.20691-5.48291-.20788q-36.74909-.02124-73.49817-.00965h-6.44964c-.22052,2.22486-.52918,3.97852-.5437,5.73462-.04828,5.83142.00952,11.66382.02621,17.49585.01431,4.99048-.69192,5.70215-5.79623,5.75256-2.333.02308-4.6727.10206-6.99811-.03515-2.74927-.16211-3.79947-1.26941-4.05478-4.00952-.09241-.9917-.02508-1.99854-.02511-2.99854q-.00087-65.49839.00006-130.9967c0-.99994.0325-2.00049.007-2.9997a3.25638,3.25638,0,0,1,2.81063-3.60113,88.11379,88.11379,0,0,1,11.95319-.09485c.6936.03558,1.70938,1.54907,1.87476,2.50171a35.011,35.011,0,0,1,.24987,5.97607q-.0216,35.24844-.05578,70.49689c-.00009,2.12006.22714,4.24011.37393,6.79785,2.15314.11206,3.926.28241,5.699.28449q26.49933.0314,52.99868.012c6.01728-.00263,6.2132-.189,6.21765-6.09693q.01987-26.24615.00837-52.49224c.00012-1.16663-.03284-2.33454.00885-3.4997.13336-3.7276.86871-4.50281,4.69818-4.9881.98712-.12512,1.98041-.2016,2.97088-.30047,6.48615.06927,12.97217.18091,19.45844.19879q17.72607.0487,35.45239.00506c22.6593-.04632,32.93018,13.976,36.18085,31.43329a55.08959,55.08959,0,0,1,.71295,9.91236q.08789,38.69778.04083,77.39593c.00025,1.94238,0,3.88477,0,6.43982-4.61255.24231-8.54559.59656-12.47986.61035-3.29748.01148-4.01825-.75988-4.16577-4.19348-.17859-4.1543-.12988-8.31848-.15728-12.47864-.01648-2.49621.09716-4.99621-.00324-7.48816-.16754-4.159-.6452-4.5946-4.62695-4.76977-.33234-.01465-.66571-.00549-.9986-.00549q-26.96375.00072-53.92755.0111C549.6488,1030.85522,548.82245,1030.98987,547.99609,1031.062Z" transform="translate(-1.00023 -1.00005)"/><path class="cls-15" d="M531.16882,916.49573c-7.08453,2.30981-14.08954,4.91729-21.27777,6.83917a12.91366,12.91366,0,0,1-15.022-6.098c-2.57163-4.40412-3.83713-9.19586-2.07642-14.31684,2.374-6.90484,4.7753-13.80035,7.14026-20.70831.51593-1.50683.92771-3.04932,1.73963-5.74432-3.61194,2.1709-6.1652,3.7055-8.71848,5.24l-.58789-.54566a45.474,45.474,0,0,1,2.5033-3.99194c6.30609-8.13135,12.69683-16.19714,18.9877-24.34009,2.301-2.97833,5.03155-4.76574,8.94092-4.14892,4.19885,3.27356,5.45227,7.13977,3.84356,12.12445-.55389,1.71631-1.27563,3.37854-1.92071,5.06549q-7.25326,12.42123-14.5018,24.84527c-2.6659,4.58692-5.47769,9.10419-7.859,13.83643-1.8328,3.64215-.87146,5.92767,2.84906,7.54242a10.76763,10.76763,0,0,0,5.27484.98157c7.71036-.92169,15.387-2.12488,23.0759-3.22675,4.6585-.69159,9.317-1.38324,15.01678-2.22943-2.78216,3.42261-6.084,3.85736-8.81616,5.18518C536.96027,914.16644,534.03778,915.276,531.16882,916.49573Z" transform="translate(-1.00023 -1.00005)"/><path class="cls-13" d="M533.55994,909.84973c-7.68885,1.10187-15.36554,2.30506-23.0759,3.22675a10.76763,10.76763,0,0,1-5.27484-.98157c-3.72052-1.61475-4.68186-3.90027-2.84906-7.54242,2.38132-4.73224,5.19311-9.24951,7.859-13.83643q7.22776-12.43606,14.5018-24.84527c.7276,1.82416,1.85528,3.59289,2.117,5.48163,1.52887,11.03253,2.77338,22.10467,4.32861,33.13324C531.42932,906.34912,532.73572,908.06543,533.55994,909.84973Z" transform="translate(-1.00023 -1.00005)"/><path class="cls-15" d="M545.48792,888.8902q16.95565-4.73978,33.91125-9.47956l.48743.818c-1.25055.91821-2.43445,1.94873-3.76245,2.73639q-13.50568,8.01095-27.07068,15.92144c-2.94141,1.71235-6.0373,2.6767-9.53394,1.66736-5.25568-1.517-7.34729-4.78326-6.059-10.16076a31.05631,31.05631,0,0,1,2.18225-5.53675c.75964-1.661,1.67053-3.25476,2.55127-4.85815.87286-1.589,1.79138-3.153,3.02545-5.3161-.94409-.29322-1.9093-.593-2.37359-.73718,1.01306-3.91755,5.789-6.81629,8.499-5.92951,2.01074.658,3.04394,3.47864,2.01343,6.41406-1.54041,4.38764-3.318,8.692-4.99445,13.032C543.73615,888.7265,544.01025,889.28174,545.48792,888.8902Z" transform="translate(-1.00023 -1.00005)"/><path class="cls-15" d="M566.69891,865.82355c-1.53033-.27295-2.41388-.43054-3.5888-.64014,1.69159-3.21509,3.905-4.744,7.4953-4.26923,1.35724,3.2793-.43122,5.68055-2.19391,8.08551-1.83063,2.4975-4.40265,4.75074-1.77576,8.74927a18.40078,18.40078,0,0,1-3.29388-.02624c-3.33057-.80793-4.00189-2.75928-1.82373-5.36487,1.05652-1.26386,2.35681-2.32275,3.4281-3.57587A22.13077,22.13077,0,0,0,566.69891,865.82355Z" transform="translate(-1.00023 -1.00005)"/><path class="cls-14" d="M519.74976,962.36768c-.74994,7.58453-2.23249,14.631-6.71393,20.816a22.49781,22.49781,0,0,1-31.00159,5.44434,26.49222,26.49222,0,0,1-10.24-13.09045c-3.39911-9.139-3.6955-18.15461.89856-27.00531,4.77368-9.19672,12.30539-14.62537,22.71173-14.224,10.694.41247,17.83389,6.72876,21.63858,16.52374C518.45917,954.4776,518.87683,958.51111,519.74976,962.36768Z" transform="translate(-1.00023 -1.00005)"/><path class="cls-11" d="M545.48792,888.8902c-1.47767.39154-1.75177-.1637-1.124-1.42877Q544.92575,888.17572,545.48792,888.8902Z" transform="translate(-1.00023 -1.00005)"/></g></g></svg>